<?xml version="1.0" encoding="UTF-8" standalone="no"?>
<!-- Created with Inkscape (http://www.inkscape.org/) -->

<svg
   xmlns:dc="http://purl.org/dc/elements/1.1/"
   xmlns:cc="http://creativecommons.org/ns#"
   xmlns:rdf="http://www.w3.org/1999/02/22-rdf-syntax-ns#"
   xmlns:svg="http://www.w3.org/2000/svg"
   xmlns="http://www.w3.org/2000/svg"
   version="1.1"
   width="48"
   height="48"
   id="svg4672">
  <defs
     id="defs4674" />
  <metadata
     id="metadata4677">
    <rdf:RDF>
      <cc:Work
         rdf:about="">
        <dc:format>image/svg+xml</dc:format>
        <dc:type
           rdf:resource="http://purl.org/dc/dcmitype/StillImage" />
        <dc:title></dc:title>
      </cc:Work>
    </rdf:RDF>
  </metadata>
  <g
     id="layer1">
    <path
       d="m 7.4072504,30.130074 c -1.6216812,1.847698 -0.599565,4.803174 -0.494557,7.080616 -0.264166,2.842096 2.073436,4.204475 4.0560666,5.689333 2.367805,1.762452 4.970484,3.491942 7.964936,3.827139 0,-3.193942 0,-6.387882 0,-9.581824 -3.842148,-2.338421 -7.684298,-4.676843 -11.5264456,-7.015264 z"
       id="path4680"
       style="fill:#00ffff;fill-opacity:1;stroke:#000000;stroke-width:1.19212222px;stroke-linecap:butt;stroke-linejoin:miter;stroke-opacity:1" />
    <path
       d="m 7.4072504,30.130074 c 7.0983456,-4.591235 15.0534606,-7.729702 23.2223346,-9.752928 4.313232,1.238533 7.817059,4.32555 10.678884,7.699681 -7.458268,3.022836 -14.916537,6.045674 -22.374805,9.068511 -3.842137,-2.338421 -7.684276,-4.676843 -11.5264136,-7.015264 z"
       id="path4682"
       style="fill:#00ffff;fill-opacity:1;stroke:#000000;stroke-width:1.19212222px;stroke-linecap:butt;stroke-linejoin:miter;stroke-opacity:1" />
    <path
       d="m 18.933696,37.145338 c 7.458257,-3.022837 14.916516,-6.045675 22.374773,-9.068511 1.657797,2.059842 0.929334,5.41177 0.82757,7.981841 0.0013,2.681044 -3.173384,2.903922 -4.910428,4.26793 -5.713613,3.061528 -11.823748,5.61654 -18.291915,6.400564 0,-3.193942 0,-6.387882 0,-9.581824 z"
       id="path4684"
       style="fill:#00ffff;fill-opacity:1;stroke:#000000;stroke-width:1.19212222px;stroke-linecap:butt;stroke-linejoin:miter;stroke-opacity:1" />
    <path
       d="m 30.036312,24.61197 c -0.359762,2.353505 -5.681784,1.661496 -4.185854,-0.789243 1.135476,-0.912604 3.739577,-1.001851 4.185854,0.789243 z"
       id="path4686"
       style="fill:#000000;fill-opacity:1;stroke:none" />
    <path
       d="m 35.121495,27.820169 c -0.359762,2.353506 -5.681785,1.661497 -4.185854,-0.789243 1.135476,-0.912604 3.739576,-1.00185 4.185854,0.789243 z"
       id="path4688"
       style="fill:#000000;fill-opacity:1;stroke:none" />
    <path
       d="m 25.521894,10.410106 c -0.727026,7.157928 -1.454047,14.315857 -2.181072,21.473785 -2.171571,-10e-7 -4.343141,-3e-6 -6.514712,-4e-6 C 16.151587,24.767908 15.477069,17.65193 14.802548,10.535952"
       id="path5204"
       style="fill:#fb0000;fill-opacity:1;stroke:#000000;stroke-width:1.19212222px;stroke-linecap:butt;stroke-linejoin:miter;stroke-opacity:1" />
    <path
       d="M 27.816766,6.4197789 C 27.610535,10.276883 23.338731,12.118504 19.981582,12.062954 16.880025,11.853853 12.962335,10.527169 12.209359,7.0812314 11.71974,3.3910386 15.617585,1.0982707 18.78836,0.84162541 22.437753,0.40789299 27.550129,2.0721764 27.816766,6.4197789 z"
       id="path4694"
       style="fill:#fb0000;fill-opacity:1;stroke:#000000;stroke-width:1.19212222;stroke-opacity:1" />
  </g>
</svg>
